<svg width="256" height="256" viewBox="0 0 256 256" fill="none" xmlns="http://www.w3.org/2000/svg">
<path d="M109.923 13.8111C85.7816 16.9432 55.3212 27.7012 32.1518 41.0467L20 48.128V60.6564C20 74.138 21.9443 89.5261 25.8329 108.046L28.4252 120.03H50.7845H73.1438L76.0602 127.656C81.893 143.453 95.017 156.117 111.867 162.518C123.533 167.011 140.87 166.739 153.345 161.973C171.654 154.755 186.236 137.733 190.287 118.668L192.231 109.136H205.031H217.993L216.859 113.493C210.054 139.912 198.712 160.475 181.214 178.178C169.548 190.026 134.713 216.717 130.986 216.717C127.908 216.717 103.604 199.558 90.3183 187.847C70.8754 170.824 59.2097 155.3 51.5946 136.371L48.0301 127.52L39.7669 127.111C33.2859 126.839 31.3417 127.111 31.3417 128.745C31.3417 133.239 43.3314 159.522 49.3263 167.965C62.4502 186.757 89.1841 210.997 114.136 226.794C130.338 237.143 130.014 237.143 141.842 229.926C176.677 209.091 207.623 179.131 219.937 154.483C225.284 143.589 232.899 120.711 235.329 107.774C236.464 102.191 237.76 96.4712 238.084 95.2456C238.894 93.0668 236.788 92.7944 214.428 92.522L189.963 92.1135L187.208 85.3046C181.052 70.0527 169.062 58.3413 153.183 51.8048C142.166 47.1747 121.427 47.1747 109.923 51.941C92.1005 59.2946 77.6804 76.1807 73.4678 94.9733L71.5235 103.825L56.6174 103.416L41.8732 103.008L40.0909 92.7944C38.9568 87.2111 37.6606 76.9977 37.0125 70.1888L35.8783 57.7966L45.4377 52.758C102.632 22.2541 159.016 22.3903 215.887 52.8942L224.636 57.6604L223.664 71.1421L222.854 84.6237H231.279H239.866L240.838 73.3209C242.945 52.3495 242.459 49.8983 237.112 46.0853C221.071 34.7825 188.019 21.0285 165.173 16.5346C149.619 13.2664 123.533 12.0408 109.923 13.8111ZM148.323 66.1035C156.748 69.5079 165.173 76.8616 170.196 85.0322C176.515 95.2456 177.325 113.221 172.302 124.66C164.201 142.636 143.462 153.666 124.343 150.125C109.113 147.266 95.9891 136.508 90.3183 122.481C86.4297 112.676 87.7259 94.2924 92.9107 85.9855C100.202 74.138 106.683 68.9632 119.645 64.6055C126.126 62.2905 140.87 63.1076 148.323 66.1035Z" fill="white"/>
<circle cx="130.393" cy="106.41" r="32.7541" fill="#027FFF"/>
<circle cx="130.393" cy="105.197" r="13.3443" fill="#090A36"/>
<circle cx="118.262" cy="85.787" r="8.4918" fill="#FEFEFE"/>
<circle cx="110.984" cy="97.918" r="3.63934" fill="#FEFEFE"/>
</svg>
